<?xml version="1.0"?>
<svg xmlns="http://www.w3.org/2000/svg" xmlns:xlink="http://www.w3.org/1999/xlink" xmlns:svgjs="http://svgjs.com/svgjs" version="1.1" width="512" height="512" x="0" y="0" viewBox="0 0 436.452 436.452" style="enable-background:new 0 0 512 512" xml:space="preserve" class=""><g><link type="text/css" rel="stylesheet" id="dark-mode-custom-link"/><link type="text/css" rel="stylesheet" id="dark-mode-general-link"/><style lang="en" type="text/css" id="dark-mode-custom-style"/><style lang="en" type="text/css" id="dark-mode-native-style"/><g xmlns="http://www.w3.org/2000/svg"><path d="m436.452 158.966v89.248c-.017 8.564-6.465 15.747-14.978 16.684l-76.991 8.696c-.618.062-1.239.087-1.86.074h-219.709l-23.669-.93-21.27-.851-54.143-2.097c-8.353-.328-15.197-6.743-16.066-15.057l-2.636-24.989c-.207-2.407.056-4.831.777-7.138l23.283-68.997c2.279-6.852 8.686-11.478 15.908-11.486h374.536c9.288 0 16.818 7.53 16.818 16.818z" fill="#52cd4e" data-original="#fe7058" style=""/><path d="m416.261 146.461h-370.377c-3.067-.011-5.861 1.759-7.162 4.536-3.403 7.237-10.63 25.093-23.09 66.776-.98 3.163.789 6.521 3.952 7.501.704.218 1.442.305 2.177.255 10.463-.549 20.792-2.605 30.668-6.104 7.078-3.101 11.601-10.15 11.471-17.876 0-3.551 2.879-6.43 6.43-6.43h345.93c4.371 0 7.914-3.543 7.914-7.914v-32.829c.001-4.372-3.543-7.915-7.913-7.915z" fill="#2f4859" data-original="#2f4859" style="" class=""/><path d="m21.934 221.894c5.967-23.915 13.401-47.44 22.259-70.442l375.471-.084.153 36.727-350.7.168c-8.331.421-14.755 7.496-14.374 15.828.2 4.925-2.427 9.534-6.767 11.871-8.329 3.287-17.111 5.287-26.042 5.932z" fill="#3e6b82" data-original="#3e6b82" style="" class=""/><path d="m341.847 269.092c-.011 1.533-.142 3.063-.391 4.575h-58.902c-.249-1.513-.379-3.042-.391-4.575 0-16.481 13.361-29.842 29.842-29.842s29.842 13.361 29.842 29.842z" fill="#2f4859" data-original="#2f4859" style="" class=""/><path d="m137.506 269.092c-.011 1.533-.142 3.063-.391 4.575h-14.201l-23.669-.93-21.27-.851c-.079-.935-.158-1.865-.158-2.795 0-16.481 13.361-29.842 29.842-29.842s29.842 13.361 29.842 29.842h.005z" fill="#2f4859" data-original="#2f4859" style="" class=""/><path d="m311.981 243.796c-13.954-.003-25.268 11.307-25.271 25.261s11.307 25.268 25.261 25.271 25.268-11.307 25.271-25.261c0-.003 0-.007 0-.01 0-13.951-11.31-25.261-25.261-25.261z" fill="#3a556a" data-original="#3a556a" style=""/><path d="m329.837 269.582c0-.589 0-1.172-.049-1.761 0-.277-.03-.559-.064-.836-.064-.569-.173-1.128-.292-1.687-.054-.272-.109-.539-.178-.801-.143-.559-.326-1.103-.524-1.647-.094-.242-.183-.495-.282-.722-.218-.495-.46-.989-.727-1.484-.153-.287-.312-.564-.495-.841s-.257-.495-.415-.717c-.158-.223-.247-.297-.366-.455-.267-.371-.554-.717-.846-1.063s-.495-.569-.727-.831c-.326-.341-.678-.658-1.034-.989-.272-.247-.544-.495-.826-.727-.282-.233-.678-.495-1.024-.717-.346-.223-.673-.495-1.029-.683s-.653-.336-.989-.495c-.401-.198-.796-.411-1.207-.579-.326-.134-.663-.232-.989-.346-.435-.153-.866-.307-1.306-.42-.341-.089-.688-.143-1.039-.213-.455-.089-.905-.183-1.37-.237-.346-.04-.697-.049-1.049-.069-.495-.03-.95-.054-1.425-.045-.371 0-.742.045-1.118.074-.376.03-.885.079-1.331.148-.445.069-.989.188-1.484.302-.237.059-.495.114-.712.183-1.284.339-2.533.8-3.73 1.375-3.053 1.505-5.524 3.976-7.029 7.029-.307.633-.534 1.261-.772 1.89-.237.628-.564 1.222-.791 1.89-1.096 3.222-1.096 6.715 0 9.937.438 1.251.996 2.457 1.667 3.601.119.223.252.43.381.648.267.425.534.851.826 1.246.292.396.554.712.846 1.059.292.346.495.564.722.826.336.351.693.673 1.054.989.262.228.495.47.782.683.361.287.752.539 1.133.796.297.198.589.411.895.589.386.228.791.415 1.197.613.322.163.643.336.989.495.406.163.826.292 1.242.43.415.139.712.252 1.073.346s.786.168 1.182.242.836.168 1.261.218c.351.04.712.049 1.068.069.495.03.965.054 1.449.045.356 0 .712-.045 1.073-.074.46-.035.92-.079 1.38-.153.188-.03.376-.03.569-.064.267-.049.519-.148.786-.213.267-.064.638-.163.96-.257.529-.158 1.049-.336 1.558-.544.242-.099.495-.213.722-.322.521-.236 1.029-.499 1.523-.786.242-.138.47-.297.702-.445.495-.312.95-.628 1.395-.989.218-.173.42-.366.633-.549.449-.382.878-.786 1.286-1.212.188-.198.356-.415.534-.618.386-.45.767-.905 1.108-1.39.064-.089.138-.163.203-.252.143-.218.247-.455.386-.678.257-.42.495-.836.737-1.276s.366-.791.529-1.197.341-.816.495-1.237c.153-.42.262-.935.376-1.405.059-.257.158-.495.208-.767 0-.114 0-.218.035-.326.099-.579.153-1.162.198-1.751.017-.274.046-.576.056-.853zm-5.124 4.729c-.194.537-.422 1.06-.683 1.568-.496.716-1.479.895-2.196.398-.102-.071-.195-.153-.278-.245l-5.139-5.139h7.266c.87-.057 1.621.602 1.678 1.472.009.135 0 .27-.025.403-.175.526-.383 1.042-.623 1.543zm-7.465 7.474c-.51.237-1.033.444-1.568.618-.856.163-1.682-.399-1.845-1.255-.025-.131-.033-.264-.025-.397v-7.271l5.139 5.139c.65.581.705 1.578.124 2.228-.083.092-.176.175-.278.245-.5.262-1.017.493-1.547.693zm-10.54 0c-.528-.189-1.044-.412-1.543-.668-.717-.501-.892-1.487-.391-2.204.069-.098.149-.189.238-.269l5.139-5.139v7.271c.053.873-.611 1.623-1.484 1.676-.129.008-.259 0-.386-.024-.538-.182-1.063-.399-1.573-.648zm-7.598-7.791c-.153-.396-.356-.772-.47-1.172-.188-.857.355-1.703 1.211-1.891.145-.032.293-.043.441-.034h7.271l-5.149 5.144c-.576.654-1.573.717-2.227.141-.092-.081-.175-.174-.246-.274-.323-.619-.601-1.26-.831-1.919zm.148-10.234c.186-.506.401-1.002.643-1.484.482-.733 1.466-.936 2.199-.455.118.078.225.171.319.277l5.144 5.149h-7.281c-.875.053-1.628-.614-1.681-1.489-.008-.137.001-.275.029-.41.178-.543.388-1.074.628-1.593zm7.42-7.42c.503-.238 1.02-.445 1.548-.618.856-.177 1.693.374 1.87 1.23.029.139.038.281.029.422v7.276l-5.144-5.144c-.657-.576-.723-1.576-.147-2.234.094-.107.202-.201.32-.279.502-.259 1.019-.487 1.548-.683zm10.531 0c.53.194 1.049.418 1.553.673.728.484.926 1.466.442 2.194-.077.116-.169.222-.274.314l-5.144 5.144v-7.301c-.057-.872.604-1.626 1.477-1.682.143-.009.287.001.428.03.525.171 1.04.371 1.543.598zm7.33 7.123c.305.627.562 1.277.767 1.944.149.861-.428 1.68-1.29 1.829-.12.021-.241.028-.362.02h-7.251l5.139-5.139c.571-.659 1.567-.73 2.226-.159.117.102.219.22.302.352.203.336.326.747.505 1.128z" fill="#e1e6e9" data-original="#e1e6e9" style=""/><path d="m107.665 243.796c-13.954-.003-25.268 11.307-25.271 25.261s11.307 25.268 25.261 25.271 25.268-11.307 25.271-25.261c0-.003 0-.007 0-.01 0-13.951-11.31-25.261-25.261-25.261z" fill="#3a556a" data-original="#3a556a" style=""/><path d="m125.521 269.582c.012-.587-.007-1.175-.054-1.761 0-.277-.025-.559-.059-.836-.064-.569-.173-1.128-.292-1.687-.054-.272-.109-.539-.178-.801-.147-.558-.324-1.108-.529-1.647-.089-.242-.178-.495-.277-.722-.218-.495-.46-.989-.727-1.484-.153-.287-.317-.564-.495-.841s-.257-.495-.415-.717c-.158-.223-.247-.297-.366-.455-.267-.371-.554-.717-.846-1.063s-.495-.569-.727-.831c-.326-.341-.678-.658-1.034-.989-.272-.247-.544-.495-.831-.727-.287-.233-.673-.495-1.019-.717-.346-.223-.678-.495-1.029-.683s-.653-.336-.989-.495c-.401-.198-.796-.411-1.207-.579-.326-.134-.668-.232-.989-.346-.435-.153-.866-.307-1.306-.42-.341-.089-.692-.143-1.039-.213-.455-.089-.91-.183-1.37-.237-.346-.04-.697-.049-1.049-.069-.495-.03-.95-.054-1.43-.045-.366 0-.742.045-1.113.074s-.885.079-1.331.148c-.445.069-.989.188-1.484.302-.237.059-.495.114-.712.183-1.284.339-2.533.8-3.73 1.375-3.053 1.505-5.524 3.976-7.029 7.029-.307.633-.534 1.261-.772 1.89s-.564 1.222-.791 1.89c-1.096 3.222-1.096 6.715 0 9.937.438 1.251.997 2.457 1.667 3.601.119.223.252.43.381.648.267.425.534.851.826 1.246.292.396.554.712.846 1.059s.47.564.722.826c.336.351.692.673 1.054.989.262.228.495.47.782.683.361.287.752.539 1.133.796.297.198.589.411.895.589.386.228.791.415 1.197.613.322.163.643.336.989.495.406.163.826.292 1.242.43.415.139.707.252 1.073.346s.786.168 1.182.242.836.168 1.261.218c.351.04.707.049 1.068.069.495.03.989.054 1.449.045.351 0 .712-.045 1.073-.074.46-.035.92-.079 1.375-.153.193-.03.381-.03.574-.064s.495-.148.782-.213c.287-.064.643-.163.989-.257.529-.158 1.044-.336 1.558-.544.242-.099.495-.213.722-.322.519-.242 1.029-.495 1.523-.786.242-.138.47-.297.702-.445.495-.312.95-.628 1.395-.989.218-.173.42-.366.633-.549.449-.382.878-.786 1.286-1.212.183-.198.356-.415.534-.618.386-.45.767-.905 1.108-1.39.064-.089.138-.163.198-.252.148-.218.252-.455.391-.678.257-.42.495-.836.737-1.276s.366-.791.529-1.197.341-.816.495-1.237.262-.935.376-1.405c.059-.257.158-.495.203-.767.025-.114 0-.218.04-.326.099-.579.153-1.162.198-1.751-.008-.274.021-.576.031-.853zm-5.124 4.729c-.194.537-.422 1.06-.683 1.568-.496.716-1.479.895-2.196.398-.102-.071-.195-.153-.278-.245l-5.144-5.139h7.271c.87-.057 1.621.602 1.678 1.472.009.135 0 .27-.025.403-.175.526-.383 1.042-.623 1.543zm-7.464 7.474c-.51.237-1.034.444-1.568.618-.856.163-1.682-.399-1.845-1.255-.025-.131-.033-.264-.025-.397v-7.271l5.139 5.139c.65.581.705 1.578.124 2.228-.083.092-.176.175-.278.245-.501.262-1.018.493-1.547.693zm-10.546 0c-.526-.19-1.04-.413-1.538-.668-.717-.501-.892-1.487-.391-2.204.069-.098.149-.189.238-.269l5.139-5.139v7.271c.053.873-.611 1.623-1.484 1.676-.129.008-.259 0-.386-.024-.539-.183-1.066-.4-1.578-.648zm-7.593-7.791c-.153-.396-.356-.772-.47-1.172-.188-.857.355-1.703 1.211-1.891.145-.032.293-.043.441-.034h7.271l-5.149 5.144c-.576.654-1.573.717-2.227.141-.092-.081-.175-.174-.246-.274-.325-.618-.603-1.259-.831-1.919zm.149-10.234c.186-.506.401-1.002.643-1.484.479-.731 1.46-.936 2.191-.457.119.078.227.172.321.279l5.149 5.149h-7.281c-.875.053-1.628-.614-1.681-1.489-.008-.137.001-.275.029-.41.178-.543.388-1.074.628-1.593v.005zm7.444-7.42c.502-.239 1.019-.446 1.548-.618.856-.177 1.693.374 1.87 1.23.029.139.038.281.029.422v7.276l-5.144-5.144c-.657-.576-.723-1.576-.147-2.234.094-.107.202-.201.32-.279.494-.258 1.002-.486 1.523-.683v.03zm10.526 0c.532.193 1.053.417 1.558.673.728.484.926 1.466.442 2.194-.077.116-.169.222-.274.314l-5.144 5.144v-7.301c-.057-.872.604-1.626 1.477-1.682.143-.009.287.001.428.03.515.171 1.021.371 1.514.598v.03zm7.335 7.123c.305.627.562 1.277.767 1.944.149.861-.428 1.681-1.29 1.83-.121.021-.245.028-.368.02h-7.276l5.139-5.139c.571-.659 1.567-.73 2.226-.159.117.102.219.22.302.352.186.367.353.743.5 1.128z" fill="#e1e6e9" data-original="#e1e6e9" style=""/><g fill="#2f4859"><path d="m364.061 146.461h5.105v45.175h-5.105z" fill="#2f4859" data-original="#2f4859" style="" class=""/><path d="m309.384 146.461h5.105v45.175h-5.105z" fill="#2f4859" data-original="#2f4859" style="" class=""/><path d="m254.711 146.461h5.105v45.175h-5.105z" fill="#2f4859" data-original="#2f4859" style="" class=""/><path d="m200.039 146.461h5.105v45.175h-5.105z" fill="#2f4859" data-original="#2f4859" style="" class=""/><path d="m145.361 146.461h5.105v45.175h-5.105z" fill="#2f4859" data-original="#2f4859" style="" class=""/><path d="m90.689 146.461h5.105v45.175h-5.105z" fill="#2f4859" data-original="#2f4859" style="" class=""/></g><path d="m356.29 224.565h-282.147c-4.831-.005-8.752 3.905-8.76 8.735v38.137h1.979v-38.137c.003-3.752 3.044-6.794 6.796-6.796h92.003v47.164h1.939v-47.164h77.273v47.164h1.939v-47.164h108.978c3.752.003 6.794 3.044 6.796 6.796v38.191l1.939-.218v-37.973c-.005-4.822-3.912-8.73-8.735-8.735z" fill="#61bd67" data-original="#ea6453" style="" class=""/><path d="m16.072 158.555c-1.583.029-3.066.779-4.026 2.038-.534.688-12 37.098-12 37.098-.352 2.467 1.362 4.752 3.829 5.105 2.467.352 4.752-1.362 5.105-3.829l10.259-31.83 10.457-.603c1.349-2.656 2.275-5.507 2.745-8.448z" fill="#3a556a" data-original="#3a556a" style=""/></g></g></svg>
