<?xml version="1.0" encoding="UTF-8"?>
<svg enable-background="new 0 0 100 100" version="1.1" viewBox="20 20 60 60" xml:space="preserve" xmlns="http://www.w3.org/2000/svg"><path d="m76.531 40.06c-1.672 0-3.026 1.355-3.026 3.027v20.687c-0.187 0.063-0.374 0.116-0.555 0.204-0.053 0.025-2.895 1.385-7.482 2.655-1.46-1.023-3.315-1.48-5.205-1.115-6.939 1.345-13.673 1.363-20.605 0.043-1.869-0.353-3.704 0.095-5.154 1.101-4.572-1.268-7.404-2.633-7.488-2.674-0.17-0.084-0.345-0.134-0.519-0.194v-20.708c0-1.671-1.355-3.027-3.027-3.027-1.671 0-3.026 1.355-3.026 3.027v24.717c0 0.145 0.022 0.282 0.042 0.422 0.063 1.605 0.955 3.13 2.495 3.896 0.261 0.129 3.791 1.856 9.425 3.388 0.943 1.727 2.622 3.034 4.706 3.432 4.262 0.811 8.542 1.223 12.722 1.223 4.277 0 8.659-0.43 13.022-1.275 2.061-0.399 3.722-1.69 4.664-3.394 5.624-1.524 9.164-3.234 9.426-3.363 1.434-0.704 2.321-2.063 2.496-3.539 0.068-0.253 0.117-0.515 0.117-0.789v-24.718c-1e-3 -1.671-1.356-3.026-3.028-3.026zm-45.729 1.513-1e-3 19.084c0.602 0.234 1.334 0.506 2.211 0.797 2.347-1.188 5.09-1.592 7.712-1.097 6.316 1.206 12.261 1.191 18.604-0.04 2.646-0.513 5.384-0.109 7.736 1.076 0.808-0.27 1.493-0.521 2.068-0.742l0.01-19.079c0-3.41 2.526-6.215 5.801-6.708v-9.227c0-1.671-1.264-2.46-3.026-3.027 0 0-9.594-2.775-21.756-2.775-12.164 0-22.132 2.775-22.132 2.775-1.718 0.534-3.027 1.355-3.027 3.027v9.227c3.274 0.493 5.8 3.299 5.8 6.709z"/></svg>
